<svg id="visual" viewBox="0 0 900 600" width="900" height="600" xmlns="http://www.w3.org/2000/svg" xmlns:xlink="http://www.w3.org/1999/xlink" version="1.1"><rect x="0" y="0" width="900" height="600" fill="#001220"></rect><defs><linearGradient id="grad1_0" x1="33.3%" y1="100%" x2="100%" y2="0%"><stop offset="20%" stop-color="#fbae3c" stop-opacity="1"></stop><stop offset="80%" stop-color="#fbae3c" stop-opacity="1"></stop></linearGradient></defs><defs><linearGradient id="grad1_1" x1="33.3%" y1="100%" x2="100%" y2="0%"><stop offset="20%" stop-color="#fbae3c" stop-opacity="1"></stop><stop offset="80%" stop-color="#f17c53" stop-opacity="1"></stop></linearGradient></defs><defs><linearGradient id="grad1_2" x1="33.3%" y1="100%" x2="100%" y2="0%"><stop offset="20%" stop-color="#cc5867" stop-opacity="1"></stop><stop offset="80%" stop-color="#f17c53" stop-opacity="1"></stop></linearGradient></defs><defs><linearGradient id="grad1_3" x1="33.3%" y1="100%" x2="100%" y2="0%"><stop offset="20%" stop-color="#cc5867" stop-opacity="1"></stop><stop offset="80%" stop-color="#96446e" stop-opacity="1"></stop></linearGradient></defs><defs><linearGradient id="grad1_4" x1="33.3%" y1="100%" x2="100%" y2="0%"><stop offset="20%" stop-color="#593762" stop-opacity="1"></stop><stop offset="80%" stop-color="#96446e" stop-opacity="1"></stop></linearGradient></defs><defs><linearGradient id="grad1_5" x1="33.3%" y1="100%" x2="100%" y2="0%"><stop offset="20%" stop-color="#593762" stop-opacity="1"></stop><stop offset="80%" stop-color="#232745" stop-opacity="1"></stop></linearGradient></defs><defs><linearGradient id="grad1_6" x1="33.3%" y1="100%" x2="100%" y2="0%"><stop offset="20%" stop-color="#001220" stop-opacity="1"></stop><stop offset="80%" stop-color="#232745" stop-opacity="1"></stop></linearGradient></defs><defs><linearGradient id="grad2_0" x1="0%" y1="100%" x2="66.7%" y2="0%"><stop offset="20%" stop-color="#fbae3c" stop-opacity="1"></stop><stop offset="80%" stop-color="#fbae3c" stop-opacity="1"></stop></linearGradient></defs><defs><linearGradient id="grad2_1" x1="0%" y1="100%" x2="66.7%" y2="0%"><stop offset="20%" stop-color="#f17c53" stop-opacity="1"></stop><stop offset="80%" stop-color="#fbae3c" stop-opacity="1"></stop></linearGradient></defs><defs><linearGradient id="grad2_2" x1="0%" y1="100%" x2="66.7%" y2="0%"><stop offset="20%" stop-color="#f17c53" stop-opacity="1"></stop><stop offset="80%" stop-color="#cc5867" stop-opacity="1"></stop></linearGradient></defs><defs><linearGradient id="grad2_3" x1="0%" y1="100%" x2="66.7%" y2="0%"><stop offset="20%" stop-color="#96446e" stop-opacity="1"></stop><stop offset="80%" stop-color="#cc5867" stop-opacity="1"></stop></linearGradient></defs><defs><linearGradient id="grad2_4" x1="0%" y1="100%" x2="66.7%" y2="0%"><stop offset="20%" stop-color="#96446e" stop-opacity="1"></stop><stop offset="80%" stop-color="#593762" stop-opacity="1"></stop></linearGradient></defs><defs><linearGradient id="grad2_5" x1="0%" y1="100%" x2="66.7%" y2="0%"><stop offset="20%" stop-color="#232745" stop-opacity="1"></stop><stop offset="80%" stop-color="#593762" stop-opacity="1"></stop></linearGradient></defs><defs><linearGradient id="grad2_6" x1="0%" y1="100%" x2="66.7%" y2="0%"><stop offset="20%" stop-color="#232745" stop-opacity="1"></stop><stop offset="80%" stop-color="#001220" stop-opacity="1"></stop></linearGradient></defs><g transform="translate(900, 600)"><path d="M-486.7 0C-474.1 -85.3 -461.5 -170.6 -421.5 -243.4C-381.6 -316.1 -314.3 -376.4 -239.5 -414.8C-164.7 -453.3 -82.3 -470 0 -486.7L0 0Z" fill="#0f1d33"></path><path d="M-417.2 0C-406.4 -73.1 -395.6 -146.2 -361.3 -208.6C-327.1 -271 -269.4 -322.6 -205.3 -355.6C-141.2 -388.5 -70.6 -402.9 0 -417.2L0 0Z" fill="#3d3056"></path><path d="M-347.7 0C-338.7 -60.9 -329.6 -121.9 -301.1 -173.8C-272.6 -225.8 -224.5 -268.8 -171.1 -296.3C-117.6 -323.8 -58.8 -335.7 0 -347.7L0 0Z" fill="#773d6b"></path><path d="M-278.1 0C-270.9 -48.7 -263.7 -97.5 -240.9 -139.1C-218 -180.6 -179.6 -215.1 -136.9 -237C-94.1 -259 -47.1 -268.6 0 -278.1L0 0Z" fill="#b34c6d"></path><path d="M-208.6 0C-203.2 -36.6 -197.8 -73.1 -180.7 -104.3C-163.5 -135.5 -134.7 -161.3 -102.6 -177.8C-70.6 -194.3 -35.3 -201.4 0 -208.6L0 0Z" fill="#e1685e"></path><path d="M-139.1 0C-135.5 -24.4 -131.9 -48.7 -120.4 -69.5C-109 -90.3 -89.8 -107.5 -68.4 -118.5C-47.1 -129.5 -23.5 -134.3 0 -139.1L0 0Z" fill="#f99447"></path><path d="M-69.5 0C-67.7 -12.2 -65.9 -24.4 -60.2 -34.8C-54.5 -45.2 -44.9 -53.8 -34.2 -59.3C-23.5 -64.8 -11.8 -67.1 0 -69.5L0 0Z" fill="#fbae3c"></path></g><g transform="translate(0, 0)"><path d="M486.7 0C427.1 57.5 367.4 115.1 334.3 193C301.2 270.9 294.7 369.2 243.4 421.5C192.1 473.9 96 480.3 0 486.7L0 0Z" fill="#0f1d33"></path><path d="M417.2 0C366.1 49.3 314.9 98.6 286.5 165.4C258.2 232.2 252.6 316.4 208.6 361.3C164.6 406.2 82.3 411.7 0 417.2L0 0Z" fill="#3d3056"></path><path d="M347.7 0C305 41.1 262.4 82.2 238.8 137.9C215.1 193.5 210.5 263.7 173.8 301.1C137.2 338.5 68.6 343.1 0 347.7L0 0Z" fill="#773d6b"></path><path d="M278.1 0C244 32.9 209.9 65.8 191 110.3C172.1 154.8 168.4 211 139.1 240.9C109.8 270.8 54.9 274.5 0 278.1L0 0Z" fill="#b34c6d"></path><path d="M208.6 0C183 24.7 157.5 49.3 143.3 82.7C129.1 116.1 126.3 158.2 104.3 180.7C82.3 203.1 41.2 205.9 0 208.6L0 0Z" fill="#e1685e"></path><path d="M139.1 0C122 16.4 105 32.9 95.5 55.1C86.1 77.4 84.2 105.5 69.5 120.4C54.9 135.4 27.4 137.2 0 139.1L0 0Z" fill="#f99447"></path><path d="M69.5 0C61 8.2 52.5 16.4 47.8 27.6C43 38.7 42.1 52.7 34.8 60.2C27.4 67.7 13.7 68.6 0 69.5L0 0Z" fill="#fbae3c"></path></g></svg>