<svg id="visual" viewBox="0 0 900 600" width="900" height="600" xmlns="http://www.w3.org/2000/svg" xmlns:xlink="http://www.w3.org/1999/xlink" version="1.1"><rect x="0" y="0" width="900" height="600" fill="#001220"></rect><defs><linearGradient id="grad1_0" x1="33.3%" y1="100%" x2="100%" y2="0%"><stop offset="20%" stop-color="#001220" stop-opacity="1"></stop><stop offset="80%" stop-color="#001220" stop-opacity="1"></stop></linearGradient></defs><defs><linearGradient id="grad2_0" x1="0%" y1="100%" x2="66.7%" y2="0%"><stop offset="20%" stop-color="#001220" stop-opacity="1"></stop><stop offset="80%" stop-color="#001220" stop-opacity="1"></stop></linearGradient></defs><g transform="translate(900, 600)"><path d="M-486.7 0C-485.3 -69.4 -483.8 -138.8 -449.7 -186.3C-415.6 -233.7 -348.7 -259.3 -301.9 -301.9C-255.1 -344.6 -228.4 -404.3 -181.4 -437.9C-134.4 -471.6 -67.2 -479.2 0 -486.7L0 0Z" fill="#FBAE3C"></path></g><g transform="translate(0, 0)"><path d="M486.7 0C431.9 42.8 377.1 85.7 362.2 150C347.2 214.3 372.3 300.1 344.2 344.2C316.1 388.3 235 390.6 168.8 407.4C102.6 424.2 51.3 455.5 0 486.7L0 0Z" fill="#FBAE3C"></path></g></svg>