<svg id="visual" viewBox="0 0 900 600" width="900" height="600" xmlns="http://www.w3.org/2000/svg" xmlns:xlink="http://www.w3.org/1999/xlink" version="1.1"><rect x="0" y="0" width="900" height="600" fill="#0077ff"></rect><defs><linearGradient id="grad1_0" x1="33.3%" y1="100%" x2="100%" y2="0%"><stop offset="20%" stop-color="#001220" stop-opacity="1"></stop><stop offset="80%" stop-color="#001220" stop-opacity="1"></stop></linearGradient></defs><defs><linearGradient id="grad1_1" x1="33.3%" y1="100%" x2="100%" y2="0%"><stop offset="20%" stop-color="#001220" stop-opacity="1"></stop><stop offset="80%" stop-color="#002340" stop-opacity="1"></stop></linearGradient></defs><defs><linearGradient id="grad1_2" x1="33.3%" y1="100%" x2="100%" y2="0%"><stop offset="20%" stop-color="#003464" stop-opacity="1"></stop><stop offset="80%" stop-color="#002340" stop-opacity="1"></stop></linearGradient></defs><defs><linearGradient id="grad1_3" x1="33.3%" y1="100%" x2="100%" y2="0%"><stop offset="20%" stop-color="#003464" stop-opacity="1"></stop><stop offset="80%" stop-color="#004689" stop-opacity="1"></stop></linearGradient></defs><defs><linearGradient id="grad1_4" x1="33.3%" y1="100%" x2="100%" y2="0%"><stop offset="20%" stop-color="#0057b0" stop-opacity="1"></stop><stop offset="80%" stop-color="#004689" stop-opacity="1"></stop></linearGradient></defs><defs><linearGradient id="grad1_5" x1="33.3%" y1="100%" x2="100%" y2="0%"><stop offset="20%" stop-color="#0057b0" stop-opacity="1"></stop><stop offset="80%" stop-color="#0067d7" stop-opacity="1"></stop></linearGradient></defs><defs><linearGradient id="grad1_6" x1="33.3%" y1="100%" x2="100%" y2="0%"><stop offset="20%" stop-color="#0077ff" stop-opacity="1"></stop><stop offset="80%" stop-color="#0067d7" stop-opacity="1"></stop></linearGradient></defs><defs><linearGradient id="grad2_0" x1="0%" y1="100%" x2="66.7%" y2="0%"><stop offset="20%" stop-color="#001220" stop-opacity="1"></stop><stop offset="80%" stop-color="#001220" stop-opacity="1"></stop></linearGradient></defs><defs><linearGradient id="grad2_1" x1="0%" y1="100%" x2="66.7%" y2="0%"><stop offset="20%" stop-color="#002340" stop-opacity="1"></stop><stop offset="80%" stop-color="#001220" stop-opacity="1"></stop></linearGradient></defs><defs><linearGradient id="grad2_2" x1="0%" y1="100%" x2="66.7%" y2="0%"><stop offset="20%" stop-color="#002340" stop-opacity="1"></stop><stop offset="80%" stop-color="#003464" stop-opacity="1"></stop></linearGradient></defs><defs><linearGradient id="grad2_3" x1="0%" y1="100%" x2="66.7%" y2="0%"><stop offset="20%" stop-color="#004689" stop-opacity="1"></stop><stop offset="80%" stop-color="#003464" stop-opacity="1"></stop></linearGradient></defs><defs><linearGradient id="grad2_4" x1="0%" y1="100%" x2="66.7%" y2="0%"><stop offset="20%" stop-color="#004689" stop-opacity="1"></stop><stop offset="80%" stop-color="#0057b0" stop-opacity="1"></stop></linearGradient></defs><defs><linearGradient id="grad2_5" x1="0%" y1="100%" x2="66.7%" y2="0%"><stop offset="20%" stop-color="#0067d7" stop-opacity="1"></stop><stop offset="80%" stop-color="#0057b0" stop-opacity="1"></stop></linearGradient></defs><defs><linearGradient id="grad2_6" x1="0%" y1="100%" x2="66.7%" y2="0%"><stop offset="20%" stop-color="#0067d7" stop-opacity="1"></stop><stop offset="80%" stop-color="#0077ff" stop-opacity="1"></stop></linearGradient></defs><g transform="translate(900, 600)"><path d="M-459.7 0C-429 -69.1 -398.2 -138.3 -363.7 -210C-329.3 -281.7 -291.1 -356.1 -229.9 -398.1C-168.6 -440.2 -84.3 -449.9 0 -459.7L0 0Z" fill="#006feb"></path><path d="M-394 0C-367.7 -59.3 -341.3 -118.5 -311.8 -180C-282.2 -241.5 -249.5 -305.2 -197 -341.2C-144.5 -377.3 -72.3 -385.7 0 -394L0 0Z" fill="#005fc4"></path><path d="M-328.4 0C-306.4 -49.4 -284.4 -98.8 -259.8 -150C-235.2 -201.2 -207.9 -254.3 -164.2 -284.4C-120.4 -314.4 -60.2 -321.4 0 -328.4L0 0Z" fill="#004e9d"></path><path d="M-262.7 0C-245.1 -39.5 -227.5 -79 -207.8 -120C-188.2 -161 -166.3 -203.5 -131.3 -227.5C-96.4 -251.5 -48.2 -257.1 0 -262.7L0 0Z" fill="#003d76"></path><path d="M-197 0C-183.8 -29.6 -170.7 -59.3 -155.9 -90C-141.1 -120.7 -124.8 -152.6 -98.5 -170.6C-72.3 -188.6 -36.1 -192.8 0 -197L0 0Z" fill="#002c52"></path><path d="M-131.3 0C-122.6 -19.8 -113.8 -39.5 -103.9 -60C-94.1 -80.5 -83.2 -101.7 -65.7 -113.7C-48.2 -125.8 -24.1 -128.6 0 -131.3L0 0Z" fill="#001b30"></path><path d="M-65.7 0C-61.3 -9.9 -56.9 -19.8 -52 -30C-47 -40.2 -41.6 -50.9 -32.8 -56.9C-24.1 -62.9 -12 -64.3 0 -65.7L0 0Z" fill="#001220"></path></g><g transform="translate(0, 0)"><path d="M459.7 0C448 81 436.3 161.9 398.1 229.9C359.9 297.8 295.3 352.7 224.5 388.8C153.7 425 76.9 442.3 0 459.7L0 0Z" fill="#006feb"></path><path d="M394 0C384 69.4 374 138.8 341.2 197C308.5 255.2 253.1 302.3 192.4 333.3C131.8 364.3 65.9 379.2 0 394L0 0Z" fill="#005fc4"></path><path d="M328.4 0C320 57.8 311.6 115.7 284.4 164.2C257.1 212.7 210.9 251.9 160.4 277.7C109.8 303.6 54.9 316 0 328.4L0 0Z" fill="#004e9d"></path><path d="M262.7 0C256 46.3 249.3 92.5 227.5 131.3C205.7 170.2 168.7 201.5 128.3 222.2C87.8 242.8 43.9 252.8 0 262.7L0 0Z" fill="#003d76"></path><path d="M197 0C192 34.7 187 69.4 170.6 98.5C154.3 127.6 126.5 151.2 96.2 166.6C65.9 182.1 32.9 189.6 0 197L0 0Z" fill="#002c52"></path><path d="M131.3 0C128 23.1 124.7 46.3 113.7 65.7C102.8 85.1 84.4 100.8 64.1 111.1C43.9 121.4 22 126.4 0 131.3L0 0Z" fill="#001b30"></path><path d="M65.7 0C64 11.6 62.3 23.1 56.9 32.8C51.4 42.5 42.2 50.4 32.1 55.5C22 60.7 11 63.2 0 65.7L0 0Z" fill="#001220"></path></g></svg>