<svg id="visual" viewBox="0 0 900 600" width="900" height="600" xmlns="http://www.w3.org/2000/svg" xmlns:xlink="http://www.w3.org/1999/xlink" version="1.1"><rect x="0" y="0" width="900" height="600" fill="#001220"></rect><defs><linearGradient id="grad1_0" x1="33.3%" y1="100%" x2="100%" y2="0%"><stop offset="20%" stop-color="#0077ff" stop-opacity="1"></stop><stop offset="80%" stop-color="#0077ff" stop-opacity="1"></stop></linearGradient></defs><defs><linearGradient id="grad1_1" x1="33.3%" y1="100%" x2="100%" y2="0%"><stop offset="20%" stop-color="#0077ff" stop-opacity="1"></stop><stop offset="80%" stop-color="#004689" stop-opacity="1"></stop></linearGradient></defs><defs><linearGradient id="grad1_2" x1="33.3%" y1="100%" x2="100%" y2="0%"><stop offset="20%" stop-color="#001220" stop-opacity="1"></stop><stop offset="80%" stop-color="#004689" stop-opacity="1"></stop></linearGradient></defs><defs><linearGradient id="grad2_0" x1="0%" y1="100%" x2="66.7%" y2="0%"><stop offset="20%" stop-color="#0077ff" stop-opacity="1"></stop><stop offset="80%" stop-color="#0077ff" stop-opacity="1"></stop></linearGradient></defs><defs><linearGradient id="grad2_1" x1="0%" y1="100%" x2="66.7%" y2="0%"><stop offset="20%" stop-color="#004689" stop-opacity="1"></stop><stop offset="80%" stop-color="#0077ff" stop-opacity="1"></stop></linearGradient></defs><defs><linearGradient id="grad2_2" x1="0%" y1="100%" x2="66.7%" y2="0%"><stop offset="20%" stop-color="#004689" stop-opacity="1"></stop><stop offset="80%" stop-color="#001220" stop-opacity="1"></stop></linearGradient></defs><g transform="translate(900, 600)"><path d="M-459.7 0C-437.3 -73.9 -414.8 -147.9 -379.3 -219C-343.8 -290.1 -295.3 -358.5 -229.9 -398.1C-164.5 -437.8 -82.2 -448.7 0 -459.7L0 0Z" fill="#002c52"></path><path d="M-306.5 0C-291.5 -49.3 -276.5 -98.6 -252.9 -146C-229.2 -193.4 -196.8 -239 -153.2 -265.4C-109.6 -291.8 -54.8 -299.2 0 -306.5L0 0Z" fill="#005fc4"></path><path d="M-153.2 0C-145.8 -24.6 -138.3 -49.3 -126.4 -73C-114.6 -96.7 -98.4 -119.5 -76.6 -132.7C-54.8 -145.9 -27.4 -149.6 0 -153.2L0 0Z" fill="#0077ff"></path></g><g transform="translate(0, 0)"><path d="M459.7 0C451.9 87.8 444.2 175.5 398.1 229.9C352.1 284.2 267.7 305 195 337.7C122.3 370.5 61.1 415.1 0 459.7L0 0Z" fill="#002c52"></path><path d="M306.5 0C301.3 58.5 296.1 117 265.4 153.2C234.7 189.4 178.5 203.3 130 225.2C81.5 247 40.8 276.7 0 306.5L0 0Z" fill="#005fc4"></path><path d="M153.2 0C150.6 29.3 148.1 58.5 132.7 76.6C117.4 94.7 89.2 101.7 65 112.6C40.8 123.5 20.4 138.4 0 153.2L0 0Z" fill="#0077ff"></path></g></svg>