<svg id="visual" viewBox="0 0 900 600" width="900" height="600" xmlns="http://www.w3.org/2000/svg" xmlns:xlink="http://www.w3.org/1999/xlink" version="1.1"><rect x="0" y="0" width="900" height="600" fill="#001220"></rect><defs><linearGradient id="grad1_0" x1="33.3%" y1="100%" x2="100%" y2="0%"><stop offset="20%" stop-color="#0077ff" stop-opacity="1"></stop><stop offset="80%" stop-color="#0077ff" stop-opacity="1"></stop></linearGradient></defs><defs><linearGradient id="grad1_1" x1="33.3%" y1="100%" x2="100%" y2="0%"><stop offset="20%" stop-color="#0077ff" stop-opacity="1"></stop><stop offset="80%" stop-color="#0067d7" stop-opacity="1"></stop></linearGradient></defs><defs><linearGradient id="grad1_2" x1="33.3%" y1="100%" x2="100%" y2="0%"><stop offset="20%" stop-color="#0057b0" stop-opacity="1"></stop><stop offset="80%" stop-color="#0067d7" stop-opacity="1"></stop></linearGradient></defs><defs><linearGradient id="grad1_3" x1="33.3%" y1="100%" x2="100%" y2="0%"><stop offset="20%" stop-color="#0057b0" stop-opacity="1"></stop><stop offset="80%" stop-color="#004689" stop-opacity="1"></stop></linearGradient></defs><defs><linearGradient id="grad1_4" x1="33.3%" y1="100%" x2="100%" y2="0%"><stop offset="20%" stop-color="#003464" stop-opacity="1"></stop><stop offset="80%" stop-color="#004689" stop-opacity="1"></stop></linearGradient></defs><defs><linearGradient id="grad1_5" x1="33.3%" y1="100%" x2="100%" y2="0%"><stop offset="20%" stop-color="#003464" stop-opacity="1"></stop><stop offset="80%" stop-color="#002340" stop-opacity="1"></stop></linearGradient></defs><defs><linearGradient id="grad1_6" x1="33.3%" y1="100%" x2="100%" y2="0%"><stop offset="20%" stop-color="#001220" stop-opacity="1"></stop><stop offset="80%" stop-color="#002340" stop-opacity="1"></stop></linearGradient></defs><defs><linearGradient id="grad2_0" x1="0%" y1="100%" x2="66.7%" y2="0%"><stop offset="20%" stop-color="#0077ff" stop-opacity="1"></stop><stop offset="80%" stop-color="#0077ff" stop-opacity="1"></stop></linearGradient></defs><defs><linearGradient id="grad2_1" x1="0%" y1="100%" x2="66.7%" y2="0%"><stop offset="20%" stop-color="#0067d7" stop-opacity="1"></stop><stop offset="80%" stop-color="#0077ff" stop-opacity="1"></stop></linearGradient></defs><defs><linearGradient id="grad2_2" x1="0%" y1="100%" x2="66.7%" y2="0%"><stop offset="20%" stop-color="#0067d7" stop-opacity="1"></stop><stop offset="80%" stop-color="#0057b0" stop-opacity="1"></stop></linearGradient></defs><defs><linearGradient id="grad2_3" x1="0%" y1="100%" x2="66.7%" y2="0%"><stop offset="20%" stop-color="#004689" stop-opacity="1"></stop><stop offset="80%" stop-color="#0057b0" stop-opacity="1"></stop></linearGradient></defs><defs><linearGradient id="grad2_4" x1="0%" y1="100%" x2="66.7%" y2="0%"><stop offset="20%" stop-color="#004689" stop-opacity="1"></stop><stop offset="80%" stop-color="#003464" stop-opacity="1"></stop></linearGradient></defs><defs><linearGradient id="grad2_5" x1="0%" y1="100%" x2="66.7%" y2="0%"><stop offset="20%" stop-color="#002340" stop-opacity="1"></stop><stop offset="80%" stop-color="#003464" stop-opacity="1"></stop></linearGradient></defs><defs><linearGradient id="grad2_6" x1="0%" y1="100%" x2="66.7%" y2="0%"><stop offset="20%" stop-color="#002340" stop-opacity="1"></stop><stop offset="80%" stop-color="#001220" stop-opacity="1"></stop></linearGradient></defs><g transform="translate(900, 600)"><path d="M-540.8 0C-521.2 -90.9 -501.6 -181.8 -459 -265C-416.4 -348.2 -350.7 -423.7 -270.4 -468.4C-190.1 -513.1 -95 -526.9 0 -540.8L0 0Z" fill="#001b30"></path><path d="M-463.6 0C-446.8 -77.9 -430 -155.8 -393.4 -227.1C-356.9 -298.5 -300.6 -363.2 -231.8 -401.5C-162.9 -439.8 -81.5 -451.7 0 -463.6L0 0Z" fill="#002c52"></path><path d="M-386.3 0C-372.3 -64.9 -358.3 -129.9 -327.9 -189.3C-297.4 -248.7 -250.5 -302.6 -193.2 -334.6C-135.8 -366.5 -67.9 -376.4 0 -386.3L0 0Z" fill="#003d76"></path><path d="M-309 0C-297.8 -51.9 -286.6 -103.9 -262.3 -151.4C-237.9 -199 -200.4 -242.1 -154.5 -267.6C-108.6 -293.2 -54.3 -301.1 0 -309L0 0Z" fill="#004e9d"></path><path d="M-231.8 0C-223.4 -39 -215 -77.9 -196.7 -113.6C-178.4 -149.2 -150.3 -181.6 -115.9 -200.7C-81.5 -219.9 -40.7 -225.8 0 -231.8L0 0Z" fill="#005fc4"></path><path d="M-154.5 0C-148.9 -26 -143.3 -51.9 -131.1 -75.7C-119 -99.5 -100.2 -121.1 -77.3 -133.8C-54.3 -146.6 -27.2 -150.6 0 -154.5L0 0Z" fill="#006feb"></path><path d="M-77.3 0C-74.5 -13 -71.7 -26 -65.6 -37.9C-59.5 -49.7 -50.1 -60.5 -38.6 -66.9C-27.2 -73.3 -13.6 -75.3 0 -77.3L0 0Z" fill="#0077ff"></path></g><g transform="translate(0, 0)"><path d="M540.8 0C519.8 90.1 498.8 180.2 456.4 263.5C414 346.8 350.1 423.3 270.4 468.4C190.8 513.5 95.4 527.1 0 540.8L0 0Z" fill="#001b30"></path><path d="M463.6 0C445.6 77.2 427.6 154.5 391.2 225.9C354.8 297.3 300 362.8 231.8 401.5C163.5 440.1 81.8 451.8 0 463.6L0 0Z" fill="#002c52"></path><path d="M386.3 0C371.3 64.4 356.3 128.7 326 188.2C295.7 247.7 250 302.3 193.2 334.6C136.3 366.8 68.1 376.5 0 386.3L0 0Z" fill="#003d76"></path><path d="M309 0C297 51.5 285.1 103 260.8 150.6C236.5 198.2 200 241.9 154.5 267.6C109 293.4 54.5 301.2 0 309L0 0Z" fill="#004e9d"></path><path d="M231.8 0C222.8 38.6 213.8 77.2 195.6 112.9C177.4 148.6 150 181.4 115.9 200.7C81.8 220.1 40.9 225.9 0 231.8L0 0Z" fill="#005fc4"></path><path d="M154.5 0C148.5 25.7 142.5 51.5 130.4 75.3C118.3 99.1 100 120.9 77.3 133.8C54.5 146.7 27.3 150.6 0 154.5L0 0Z" fill="#006feb"></path><path d="M77.3 0C74.3 12.9 71.3 25.7 65.2 37.6C59.1 49.5 50 60.5 38.6 66.9C27.3 73.4 13.6 75.3 0 77.3L0 0Z" fill="#0077ff"></path></g></svg>