<svg id="visual" viewBox="0 0 900 600" width="900" height="600" xmlns="http://www.w3.org/2000/svg" xmlns:xlink="http://www.w3.org/1999/xlink" version="1.1"><rect x="0" y="0" width="900" height="600" fill="#001220"></rect><defs><linearGradient id="grad1_0" x1="33.3%" y1="100%" x2="100%" y2="0%"><stop offset="20%" stop-color="#0077ff" stop-opacity="1"></stop><stop offset="80%" stop-color="#0077ff" stop-opacity="1"></stop></linearGradient></defs><defs><linearGradient id="grad1_1" x1="33.3%" y1="100%" x2="100%" y2="0%"><stop offset="20%" stop-color="#0077ff" stop-opacity="1"></stop><stop offset="80%" stop-color="#0067d7" stop-opacity="1"></stop></linearGradient></defs><defs><linearGradient id="grad1_2" x1="33.3%" y1="100%" x2="100%" y2="0%"><stop offset="20%" stop-color="#0057b0" stop-opacity="1"></stop><stop offset="80%" stop-color="#0067d7" stop-opacity="1"></stop></linearGradient></defs><defs><linearGradient id="grad1_3" x1="33.3%" y1="100%" x2="100%" y2="0%"><stop offset="20%" stop-color="#0057b0" stop-opacity="1"></stop><stop offset="80%" stop-color="#004689" stop-opacity="1"></stop></linearGradient></defs><defs><linearGradient id="grad1_4" x1="33.3%" y1="100%" x2="100%" y2="0%"><stop offset="20%" stop-color="#003464" stop-opacity="1"></stop><stop offset="80%" stop-color="#004689" stop-opacity="1"></stop></linearGradient></defs><defs><linearGradient id="grad1_5" x1="33.3%" y1="100%" x2="100%" y2="0%"><stop offset="20%" stop-color="#003464" stop-opacity="1"></stop><stop offset="80%" stop-color="#002340" stop-opacity="1"></stop></linearGradient></defs><defs><linearGradient id="grad1_6" x1="33.3%" y1="100%" x2="100%" y2="0%"><stop offset="20%" stop-color="#001220" stop-opacity="1"></stop><stop offset="80%" stop-color="#002340" stop-opacity="1"></stop></linearGradient></defs><defs><linearGradient id="grad2_0" x1="0%" y1="100%" x2="66.7%" y2="0%"><stop offset="20%" stop-color="#0077ff" stop-opacity="1"></stop><stop offset="80%" stop-color="#0077ff" stop-opacity="1"></stop></linearGradient></defs><defs><linearGradient id="grad2_1" x1="0%" y1="100%" x2="66.7%" y2="0%"><stop offset="20%" stop-color="#0067d7" stop-opacity="1"></stop><stop offset="80%" stop-color="#0077ff" stop-opacity="1"></stop></linearGradient></defs><defs><linearGradient id="grad2_2" x1="0%" y1="100%" x2="66.7%" y2="0%"><stop offset="20%" stop-color="#0067d7" stop-opacity="1"></stop><stop offset="80%" stop-color="#0057b0" stop-opacity="1"></stop></linearGradient></defs><defs><linearGradient id="grad2_3" x1="0%" y1="100%" x2="66.7%" y2="0%"><stop offset="20%" stop-color="#004689" stop-opacity="1"></stop><stop offset="80%" stop-color="#0057b0" stop-opacity="1"></stop></linearGradient></defs><defs><linearGradient id="grad2_4" x1="0%" y1="100%" x2="66.7%" y2="0%"><stop offset="20%" stop-color="#004689" stop-opacity="1"></stop><stop offset="80%" stop-color="#003464" stop-opacity="1"></stop></linearGradient></defs><defs><linearGradient id="grad2_5" x1="0%" y1="100%" x2="66.7%" y2="0%"><stop offset="20%" stop-color="#002340" stop-opacity="1"></stop><stop offset="80%" stop-color="#003464" stop-opacity="1"></stop></linearGradient></defs><defs><linearGradient id="grad2_6" x1="0%" y1="100%" x2="66.7%" y2="0%"><stop offset="20%" stop-color="#002340" stop-opacity="1"></stop><stop offset="80%" stop-color="#001220" stop-opacity="1"></stop></linearGradient></defs><g transform="translate(900, 600)"><path d="M-351.5 0C-345.3 -66.7 -339.2 -133.4 -304.4 -175.8C-269.7 -218.2 -206.5 -236.3 -151 -261.5C-95.5 -286.8 -47.8 -319.2 0 -351.5L0 0Z" fill="#001b30"></path><path d="M-301.3 0C-296 -57.2 -290.7 -114.3 -261 -150.7C-231.2 -187 -177 -202.5 -129.4 -224.2C-81.9 -245.8 -40.9 -273.6 0 -301.3L0 0Z" fill="#002c52"></path><path d="M-251.1 0C-246.7 -47.6 -242.3 -95.3 -217.5 -125.6C-192.7 -155.8 -147.5 -168.8 -107.9 -186.8C-68.2 -204.8 -34.1 -228 0 -251.1L0 0Z" fill="#003d76"></path><path d="M-200.9 0C-197.3 -38.1 -193.8 -76.2 -174 -100.4C-154.1 -124.7 -118 -135 -86.3 -149.5C-54.6 -163.9 -27.3 -182.4 0 -200.9L0 0Z" fill="#004e9d"></path><path d="M-150.7 0C-148 -28.6 -145.4 -57.2 -130.5 -75.3C-115.6 -93.5 -88.5 -101.3 -64.7 -112.1C-40.9 -122.9 -20.5 -136.8 0 -150.7L0 0Z" fill="#005fc4"></path><path d="M-100.4 0C-98.7 -19.1 -96.9 -38.1 -87 -50.2C-77.1 -62.3 -59 -67.5 -43.1 -74.7C-27.3 -81.9 -13.6 -91.2 0 -100.4L0 0Z" fill="#006feb"></path><path d="M-50.2 0C-49.3 -9.5 -48.5 -19.1 -43.5 -25.1C-38.5 -31.2 -29.5 -33.8 -21.6 -37.4C-13.6 -41 -6.8 -45.6 0 -50.2L0 0Z" fill="#0077ff"></path></g><g transform="translate(0, 0)"><path d="M351.5 0C336.3 57.6 321 115.2 293.6 169.5C266.2 223.8 226.7 274.7 175.8 304.4C124.8 334.2 62.4 342.9 0 351.5L0 0Z" fill="#001b30"></path><path d="M301.3 0C288.2 49.4 275.1 98.8 251.6 145.3C228.2 191.8 194.3 235.4 150.7 261C107 286.5 53.5 293.9 0 301.3L0 0Z" fill="#002c52"></path><path d="M251.1 0C240.2 41.2 229.3 82.3 209.7 121.1C190.1 159.8 161.9 196.2 125.6 217.5C89.2 238.7 44.6 244.9 0 251.1L0 0Z" fill="#003d76"></path><path d="M200.9 0C192.1 32.9 183.4 65.9 167.8 96.9C152.1 127.9 129.6 157 100.4 174C71.3 191 35.7 195.9 0 200.9L0 0Z" fill="#004e9d"></path><path d="M150.7 0C144.1 24.7 137.6 49.4 125.8 72.6C114.1 95.9 97.2 117.7 75.3 130.5C53.5 143.2 26.7 146.9 0 150.7L0 0Z" fill="#005fc4"></path><path d="M100.4 0C96.1 16.5 91.7 32.9 83.9 48.4C76.1 63.9 64.8 78.5 50.2 87C35.7 95.5 17.8 98 0 100.4L0 0Z" fill="#006feb"></path><path d="M50.2 0C48 8.2 45.9 16.5 41.9 24.2C38 32 32.4 39.2 25.1 43.5C17.8 47.7 8.9 49 0 50.2L0 0Z" fill="#0077ff"></path></g></svg>